<svg height='100px' width='100px'  fill="#000000" xmlns="http://www.w3.org/2000/svg" xmlns:xlink="http://www.w3.org/1999/xlink" version="1.1" x="0px" y="0px" viewBox="0 0 100 100" style="enable-background:new 0 0 100 100;" xml:space="preserve"><g><path d="M30.7,34.6c0.7,0,1.3-0.5,1.5-1.2c0.1-0.8-0.4-1.6-1.2-1.7c-12.6-2.2-11.4-15.4-11.3-15.9c0.1-0.8-0.5-1.6-1.3-1.6   c-0.8-0.1-1.6,0.5-1.6,1.3c0,0.2-1.6,16.5,13.8,19.2C30.5,34.5,30.6,34.6,30.7,34.6z"></path><path d="M89.5,6.9c-0.3-1-1.2-1.8-2.3-1.9c-9.1-0.5-16.3,1.7-21.4,6.8c-6,5.9-7.4,13.9-7.7,18.1c-2.9-0.7-5.6-1-7.9-1.1v0   c-0.1,0-0.2,0-0.4,0v0c-2.3,0-5,0.3-7.9,1.1c-0.3-4.2-1.8-12.3-7.7-18.1c-5.1-5-12.3-7.3-21.4-6.8c-1.1,0.1-2,0.8-2.3,1.9   C10.5,7.2,4,33.3,24.8,43.5c-0.7,1.8-1.1,3.7-1.2,5.9c-0.2,1.5-1.1,10.8,6.2,23.5c0,0.1,0.1,0.2,0.1,0.2c-0.2,4.1,0,11.6,3.8,15.7   c1,1.3,5,5.3,16.1,6.2l0.2,0l0.2,0c11.2-0.9,15.1-4.8,16.1-6.2c3.9-4.1,4.1-11.6,3.8-15.7c0-0.1,0-0.1,0.1-0.2   c7.3-12.7,6.4-22,6.2-23.5c-0.1-2.2-0.6-4.1-1.2-5.9C96,33.3,89.5,7.2,89.5,6.9z M14.7,21c-0.6-4.6-0.1-8.8,0.3-11.1   c6.7,0,12,1.8,15.7,5.4c5.5,5.4,6.3,13.4,6.4,16.2c-3.8,1.6-7.4,4-9.9,7.5C20,35.7,15.8,29.6,14.7,21z M65.1,70   c-0.6,1.1-0.9,2.3-0.8,3.5c0.2,3.9-0.2,9.2-2.3,11.3l-0.2,0.1l-0.2,0.3c-0.3,0.4-2.8,2.8-10.1,3.7v-8.9c0.7-0.3,1.3-0.8,1.8-1.5   l3.2-5c0.8-1.2,0.8-2.7,0.1-4c-0.7-1.2-2-2-3.4-2h-6.4c-1.4,0-2.7,0.8-3.4,2c-0.7,1.2-0.6,2.8,0.1,4l3.2,5c0.4,0.7,1.1,1.2,1.8,1.5   v8.9c-7.3-0.9-9.8-3.3-10.1-3.7L38,84.8c-2-2-2.5-7.4-2.3-11.3c0.1-1.2-0.2-2.5-0.8-3.5c-6.6-11.6-5.4-19.7-5.4-19.7l0-0.3   c0.9-14.1,18.3-15,20.5-15c0.9,0,5.5,0.2,10.2,2c6.5,2.5,10,6.9,10.3,13l0,0.3C70.5,50.3,71.7,58.4,65.1,70z M72.9,39.1   c-2.5-3.5-6.1-5.9-9.9-7.5c0.1-2.8,0.8-10.8,6.3-16.2c3.7-3.7,9-5.5,15.7-5.4C85.9,15.5,87.3,32.1,72.9,39.1z"></path><path d="M81.7,14c-0.8,0.1-1.4,0.8-1.3,1.6c0.1,0.6,1.3,13.7-11.3,15.9c-0.8,0.1-1.4,0.9-1.2,1.7c0.1,0.7,0.8,1.2,1.5,1.2   c0.1,0,0.2,0,0.3,0c15.4-2.7,13.8-19,13.8-19.2C83.2,14.5,82.5,13.9,81.7,14z"></path></g></svg>