<svg height='100px' width='100px'  fill="#000000" xmlns="http://www.w3.org/2000/svg" xmlns:xlink="http://www.w3.org/1999/xlink" viewBox="0 0 24 24" version="1.1" x="0px" y="0px"><title>geo-5d</title><desc>Created with Sketch.</desc><g stroke="none" stroke-width="1" fill="none" fill-rule="evenodd"><g fill="#000000"><path d="M4.5,6.6077 L9.157,8.4967 L9.16,13.3167 C9.16,13.3317 9.173,13.3407 9.175,13.3557 C9.179,13.3797 9.183,13.3987 9.193,13.4197 C9.198,13.4307 9.192,13.4417 9.199,13.4517 C9.206,13.4617 9.217,13.4667 9.226,13.4767 C9.235,13.4867 9.243,13.4937 9.254,13.5027 C9.268,13.5147 9.28,13.5297 9.296,13.5387 C9.297,13.5387 9.297,13.5407 9.298,13.5407 L14,15.8917 L14,20.8317 L4.5,16.0817 L4.5,6.6077 Z M14,10.0997 L9.66,12.8617 L9.657,8.4657 L14,5.6787 L14,10.0997 Z M18.762,17.4677 L14.5,20.7307 L14.5,15.8767 L19.059,13.0757 L18.762,17.4677 Z M19.591,12.6267 C19.592,12.6077 19.577,12.5947 19.574,12.5767 C19.57,12.5497 19.57,12.5277 19.558,12.5037 C19.554,12.4957 19.559,12.4857 19.554,12.4787 C19.55,12.4717 19.542,12.4717 19.537,12.4657 C19.522,12.4447 19.502,12.4367 19.482,12.4207 C19.468,12.4097 19.464,12.3907 19.447,12.3827 L14.5,10.0777 L14.5,5.2367 C14.5,5.2177 14.484,5.2067 14.48,5.1897 C14.474,5.1567 14.464,5.1317 14.445,5.1047 C14.427,5.0767 14.407,5.0587 14.379,5.0397 C14.364,5.0297 14.36,5.0117 14.343,5.0047 L9.343,3.0047 C9.337,3.0027 9.331,3.0067 9.325,3.0047 C9.293,2.9947 9.263,3.0037 9.229,3.0057 C9.197,3.0087 9.167,3.0047 9.139,3.0197 C9.134,3.0227 9.127,3.0187 9.122,3.0227 L4.122,6.0227 C4.112,6.0277 4.111,6.0407 4.103,6.0477 C4.081,6.0647 4.069,6.0837 4.054,6.1077 C4.044,6.1217 4.025,6.1267 4.019,6.1427 C4.016,6.1487 4.021,6.1547 4.019,6.1607 C4.013,6.1767 4.014,6.1907 4.012,6.2077 C4.011,6.2187 4,6.2257 4,6.2367 L4,16.1657 C4,16.1847 4.016,16.1967 4.02,16.2137 C4.011,16.3137 4.043,16.4127 4.138,16.4607 L14.138,21.4607 C14.174,21.4787 14.212,21.4867 14.25,21.4867 C14.3,21.4867 14.348,21.4677 14.39,21.4397 C14.393,21.4367 14.398,21.4387 14.402,21.4357 L19.156,17.7957 C19.159,17.7937 19.159,17.7887 19.162,17.7857 C19.192,17.7607 19.203,17.7237 19.219,17.6877 C19.229,17.6647 19.247,17.6477 19.25,17.6227 C19.25,17.6197 19.253,17.6177 19.253,17.6147 L19.591,12.6267 Z"></path></g></g></svg>