<svg height='100px' width='100px'  fill="#000000" xmlns="http://www.w3.org/2000/svg" viewBox="0 0 96 96" x="0px" y="0px"><title>Artboard 16</title><g><path d="M90,54a5.9966,5.9966,0,0,0-6,6V78H12V60A6,6,0,0,0,0,60V84a5.9966,5.9966,0,0,0,6,6H90a5.9966,5.9966,0,0,0,6-6V60A5.9966,5.9966,0,0,0,90,54Z"></path><path d="M34.2422,34.2422,42,26.4844V60a6,6,0,0,0,12,0V26.4844l7.7578,7.7578a5.9994,5.9994,0,0,0,8.4844-8.4844l-18-18a5.9979,5.9979,0,0,0-8.4844,0l-18,18a5.9994,5.9994,0,0,0,8.4844,8.4844Z"></path></g></svg>