<svg id="Layer_1" data-name="Layer 1" xmlns="http://www.w3.org/2000/svg" xmlns:xlink="http://www.w3.org/1999/xlink" viewBox="0 0 253.1 426.66"><defs><style>.cls-1,.cls-3{fill:none;}.cls-1,.cls-2,.cls-3,.cls-4,.cls-5{stroke:#7f1b1b;stroke-miterlimit:10;}.cls-1,.cls-4{stroke-width:3px;}.cls-2{fill:#7f1b1b;}.cls-4{fill:url(#radial-gradient);}.cls-5{fill:#fff;}</style><radialGradient id="radial-gradient" cx="154.14" cy="300.18" r="78.11" gradientUnits="userSpaceOnUse"><stop offset="0" stop-color="#e2921e"/><stop offset="0.13" stop-color="#dd8e1e"/><stop offset="0.29" stop-color="#cf811e"/><stop offset="0.46" stop-color="#b76c1e"/><stop offset="0.64" stop-color="#954f1f"/><stop offset="0.82" stop-color="#6b2a1f"/><stop offset="0.87" stop-color="#5e1f1f"/></radialGradient></defs><title>Joey_Kanganru_Outback</title><path class="cls-1" d="M259.69,165.29l-9.38-13.11-25.74-17.33-16.46-29.13L175,78.32,158.27,75l-6.85-21.41-.88-20.19L129.57,10,113.24,8.2,107.54,27,95.08,12.86,61.72,8.12,57.6,37.78,77.74,83.07l11.49,3.55-17.68,33L78,123.15l-20.43,36-29.17,40.2L9.89,258.73l7.91,5.44.39,4.83,5.27,49.24,10.14-3.55L58.46,373l7.4-1.1,1.6,3.21q3.3,6.6,6.59,13.21c1.49,3,3.13,5.87,4.62,8.89q3.31,6.69,6.61,13.38t6.56,13.28l3,6c1.5-2.56,3.09-5,4.7-7.48q3.31-5.18,6.65-10.33,4-6.21,8-12.42l6.73-10.44,2.83-4.39,7.47,2.62.72-1.25c-3-3.68-4.86-7.93-6.94-12.23-2.23-4.64-5.71-7.39-9-11.18-4.81-5.51-7-12.83-7.76-20.12a3.52,3.52,0,0,1-3.45-3.23,31.37,31.37,0,0,1-.25-10.58c-.15-1.24-.35-2.46-.62-3.68-.69-3.05-1.93-5.9-2.2-9.05-.55-6.49,2.93-14.17,5.23-20.15,2.62-6.81,6.82-11.87,11.25-17.54,3.12-4,5.82-8.36,8.64-12.62a13.78,13.78,0,0,1,3-9.07,4.4,4.4,0,0,1-2.23-6.31c2-3.6,3.39-7.68,5.44-11.29a4.27,4.27,0,0,1-2.12-1.29c-3-3.2-4.43-7.38-5.56-11.55q-1.06-2.21-1.93-4.5c-.92-1.35-1.79-2.73-2.58-4.18a.73.73,0,0,1,.17-1,8.37,8.37,0,0,1-.08-4,5,5,0,0,1,4.07-5,8.49,8.49,0,0,1,3.57-.86,11.77,11.77,0,0,1,9.47,4.34l.24.07c2.09.6,4.2,1.4,5.57.89a3.47,3.47,0,0,1,.22-.87c-1.34-2.95,1.23-5.59,4-5.83,2-1,4.42-.73,5.59,1.72,1.1,2.29,2.4,4.73,3.59,7.25.71.23,1.26.58,1.31,1.13.07.88.19,1.74.32,2.61q.22.56.42,1.11l2.32-16.47,30.71-4.67L229,210.33l11.57-4.44-.06-9.26,17.41-11.1Z" transform="translate(-8.13 -6.42)"/><polyline class="cls-2" points="249.77 179.1 236.11 162.46 242.8 147.34 251.33 159.67"/><polygon class="cls-2" points="157.38 114.76 178.25 110.79 182.22 118.04 176.53 127.35 157.38 114.76"/><line class="cls-3" x1="98.74" y1="21.2" x2="142.59" y2="26.07"/><polyline class="cls-3" points="81.3 81.47 100.53 21.2 51.04 30.43"/><polyline class="cls-3" points="141.57 27.1 115.41 46.33 99.25 20.18"/><line class="cls-3" x1="146.7" y1="57.36" x2="127.21" y2="64.03"/><polyline class="cls-3" points="89.26 55.56 115.17 46.2 128.06 64.56"/><line class="cls-3" x1="81.09" y1="81.26" x2="115.45" y2="46.48"/><polyline class="cls-3" points="81.35 81.31 103.57 102.17 68.93 116.63"/><line class="cls-3" x1="127.12" y1="63.97" x2="142.06" y2="93.41"/><line class="cls-3" x1="103.16" y1="102.16" x2="141.94" y2="92.86"/><line class="cls-3" x1="142.08" y1="93.31" x2="149.94" y2="69.05"/><line class="cls-3" x1="141.35" y1="93.23" x2="180.79" y2="83.26"/><polyline class="cls-3" points="177.96 110.93 197.16 97.88 141.71 93.17 157.3 114.79"/><polyline class="cls-3" points="57.92 366.04 86.73 326.89 115.68 379"/><path class="cls-3" d="M93.9,333.45l9.49-2.4" transform="translate(-8.13 -6.42)"/><polyline class="cls-3" points="57.92 365.9 51.03 284.16 25.39 308.15"/><line class="cls-3" x1="52" y1="283.34" x2="88.52" y2="329.1"/><polyline class="cls-3" points="51.95 285.13 47.08 254.21 9.83 257.87 25.91 310.07"/><line class="cls-3" x1="10.06" y1="258.64" x2="51.51" y2="284.47"/><line class="cls-3" x1="86.54" y1="326.26" x2="87.09" y2="239.58"/><path class="cls-3" d="M120.9,272.58c-7.82-9.54-17.76-17.09-25.46-26.73a40,40,0,0,0-4.5,6c1.84-1.55,3.93-3.61,4.5-6-12.61,14.56-24,30.08-36,45.18" transform="translate(-8.13 -6.42)"/><path class="cls-3" d="M95.28,332.56l7.21-8.38" transform="translate(-8.13 -6.42)"/><polyline class="cls-3" points="10.27 257.92 50.44 222.36 19.93 194.27"/><line class="cls-3" x1="51.32" y1="221.48" x2="47.15" y2="254.85"/><line class="cls-3" x1="51.12" y1="221.61" x2="74.28" y2="256.36"/><path class="cls-3" d="M127.29,234.69c-10.94,3.46-21.4,8.39-32.58,11.07" transform="translate(-8.13 -6.42)"/><polyline class="cls-3" points="187.54 192.96 204.29 182.53 232.4 190.88"/><polyline class="cls-3" points="236.07 162.89 206.87 159.81 205.88 183.08"/><polyline class="cls-3" points="207.43 159.53 187.54 142.18 230 136.96"/><line class="cls-3" x1="187.82" y1="142.32" x2="182.18" y2="117.21"/><polyline class="cls-3" points="187.54 141.76 127.73 175.19 141.53 92.7"/><line class="cls-3" x1="170.86" y1="150.74" x2="206.19" y2="175.74"/><line class="cls-3" x1="172.01" y1="150.34" x2="153.39" y2="197.1"/><line class="cls-3" x1="127.97" y1="175.55" x2="153.6" y2="196.68"/><path class="cls-3" d="M125.3,206.47c-1.46-5.08-2.46-10.08-5.46-14.08,4-4,10-6,15.43-10.32" transform="translate(-8.13 -6.42)"/><path class="cls-3" d="M51.64,168.63c1.2,19.76,4.2,39.76,5.64,60l21.45-12.68c6.11,10.47,11.11,19.47,16.6,29.75,6.32-6-.69-1.24,0,0,9.51-8.28,17.51-17.28,26.31-25" transform="translate(-8.13 -6.42)"/><line class="cls-3" x1="70.92" y1="209.66" x2="108.5" y2="218.27"/><polyline class="cls-3" points="46.17 184.13 70.45 210.13 111.16 186.17"/><line class="cls-3" x1="102.92" y1="101.41" x2="137.15" y2="120.83"/><polyline class="cls-3" points="113.58 106.83 94.07 146.66 57.49 138.62"/><line class="cls-3" x1="94.33" y1="145.38" x2="129.86" y2="165.65"/><line class="cls-3" x1="94.16" y1="146.99" x2="98.91" y2="193.11"/><line class="cls-3" x1="43.8" y1="162.51" x2="94.16" y2="147.25"/><line class="cls-3" x1="71.19" y1="154.29" x2="83.4" y2="202.36"/><path class="cls-4" d="M119.35,218.51l1.86-13.37,15,2.13,5.62,6.37,2.57-8.46,7.35.79,9.46,10.56.39,9.1,3.09,9.65,7.55,1.49,14.91,12.35,7.42,13.13,11.6,7.81,4.22,5.91-.81,9.12-7.85,5,0,4.17-5.22,2-16.49-5.52-13.84,2.11-1.61,11.47,3.82,5.37.76,1.59,5,19.93.88,3.73-2.38-.76L170.26,352l-.79,4.11-3.09-1.5-11.74,17.91-2.13,3.63-3.36-1.18-1.28,2-3,4.7-3.61,5.6-3,4.65c-.73,1.12-1.44,2.22-2.12,3.37l-1.34-2.71-2.95-6-3-6c-.67-1.36-1.41-2.65-2.09-4l-3-5.95-.73-1.44-3.33.49-11.2-26.29L104,344.9l-2.38-22.19-.18-2.18-3.56-2.45,8.36-26.77,13.15-18.11,9.2-16.22-2.92-1.61,8-14.85-5.18-1.6Z" transform="translate(-8.13 -6.42)"/><polyline class="cls-5" points="201.49 278.67 195.33 271.17 198.35 264.36 202.19 269.91"/><polygon class="cls-5" points="159.85 249.67 169.26 247.88 171.05 251.15 168.48 255.35 159.85 249.67"/><line class="cls-3" x1="133.42" y1="207.51" x2="153.19" y2="209.7"/><polyline class="cls-3" points="125.56 234.67 134.23 207.51 111.93 211.67"/><polyline class="cls-3" points="152.73 210.17 140.94 218.83 133.66 207.04"/><line class="cls-3" x1="155.04" y1="223.8" x2="146.25" y2="226.81"/><polyline class="cls-3" points="129.16 222.99 140.83 218.78 146.64 227.05"/><line class="cls-3" x1="125.47" y1="234.57" x2="140.96" y2="218.9"/><polyline class="cls-3" points="125.59 234.6 135.6 244 119.99 250.51"/><line class="cls-3" x1="146.21" y1="226.78" x2="152.95" y2="240.05"/><line class="cls-3" x1="135.42" y1="243.99" x2="152.9" y2="239.8"/><line class="cls-3" x1="152.96" y1="240" x2="156.5" y2="229.07"/><line class="cls-3" x1="152.63" y1="239.97" x2="170.4" y2="235.48"/><polyline class="cls-3" points="169.13 247.94 177.78 242.06 152.79 239.94 159.81 249.69"/><polyline class="cls-3" points="115.03 362.92 128.01 345.27 141.06 368.75"/><polyline class="cls-3" points="127.58 345.33 143.29 341.36 144.16 369.31"/><polyline class="cls-3" points="142.74 341.67 154.41 332.04 158.08 348.5"/><polyline class="cls-3" points="153.98 332.23 164.66 327.63 166.09 324.03"/><polyline class="cls-3" points="115.03 362.85 111.92 326.01 100.37 336.82"/><line class="cls-3" x1="112.36" y1="325.64" x2="128.82" y2="346.27"/><polyline class="cls-3" points="112.34 326.45 110.14 312.51 93.36 314.16 100.6 337.69"/><line class="cls-3" x1="93.46" y1="314.51" x2="112.14" y2="326.15"/><line class="cls-3" x1="127.93" y1="344.98" x2="128.18" y2="305.92"/><polyline class="cls-3" points="128.2 344.93 145.77 324.5 128.27 305.86 112.07 326.22"/><line class="cls-3" x1="143.4" y1="341.35" x2="136.73" y2="334.97"/><polyline class="cls-3" points="154.52 332.53 145.55 324.43 161.62 305.86"/><line class="cls-3" x1="165.78" y1="324.5" x2="155.09" y2="313.67"/><polyline class="cls-3" points="93.56 314.19 111.66 298.16 97.91 285.5"/><line class="cls-3" x1="112.05" y1="297.77" x2="110.17" y2="312.8"/><line class="cls-3" x1="111.97" y1="297.82" x2="122.4" y2="313.48"/><polyline class="cls-3" points="153.77 314.6 146.53 299.85 127.94 305.81"/><line class="cls-3" x1="146.26" y1="299.85" x2="156.81" y2="298.3"/><polyline class="cls-3" points="173.44 284.91 180.99 280.21 193.66 283.97"/><polyline class="cls-3" points="195.31 271.36 182.16 269.98 181.71 280.46"/><polyline class="cls-3" points="182.41 269.85 173.44 262.03 192.58 259.68"/><line class="cls-3" x1="173.57" y1="262.09" x2="171.03" y2="250.78"/><polyline class="cls-3" points="173.44 261.84 146.49 276.91 152.71 239.73"/><line class="cls-3" x1="165.93" y1="265.88" x2="181.85" y2="277.15"/><line class="cls-3" x1="166.44" y1="265.71" x2="158.05" y2="286.78"/><line class="cls-3" x1="146.6" y1="277.07" x2="158.15" y2="286.59"/><polyline class="cls-3" points="146.32 299.88 139.34 281.64 146.22 277.11"/><polyline class="cls-3" points="108.53 271.05 111.08 298.08 120.75 292.37 128.23 305.78 143.47 291.31"/><line class="cls-3" x1="120.89" y1="292.44" x2="137.82" y2="296.32"/><polyline class="cls-3" points="109.73 280.93 120.67 292.65 139.02 281.85"/><line class="cls-3" x1="135.31" y1="243.65" x2="150.74" y2="252.4"/><polyline class="cls-3" points="140.11 246.1 131.32 264.05 114.84 260.42"/><line class="cls-3" x1="131.44" y1="263.47" x2="147.45" y2="272.6"/><line class="cls-3" x1="131.36" y1="264.2" x2="133.5" y2="284.98"/><line class="cls-3" x1="108.67" y1="271.19" x2="131.36" y2="264.31"/><line class="cls-3" x1="121.01" y1="267.48" x2="126.51" y2="289.15"/></svg>