<svg id="Layer_1" data-name="Layer 1" xmlns="http://www.w3.org/2000/svg" xmlns:xlink="http://www.w3.org/1999/xlink" viewBox="0 0 249.98 421.81"><defs><style>.cls-1{fill:url(#radial-gradient);}.cls-2{fill:#7f1b1b;}.cls-2,.cls-3{stroke:#fff;stroke-miterlimit:10;}.cls-3{fill:none;}</style><radialGradient id="radial-gradient" cx="134.59" cy="219.75" r="222.83" gradientTransform="translate(-57.84 364.07) rotate(-92.85) scale(1 0.91)" gradientUnits="userSpaceOnUse"><stop offset="0" stop-color="#e2921e"/><stop offset="0.13" stop-color="#dd8e1e"/><stop offset="0.29" stop-color="#cf811e"/><stop offset="0.46" stop-color="#b76c1e"/><stop offset="0.64" stop-color="#954f1f"/><stop offset="0.82" stop-color="#6b2a1f"/><stop offset="0.87" stop-color="#5e1f1f"/></radialGradient></defs><title>Kanganru_Outback</title><path class="cls-1" d="M57.4,38.51,61.52,8.85l33.35,4.74,12.47,14.13L113,8.93l16.33,1.76,21,23.43.88,20.19,6.85,21.42,16.76,3.32,33.08,27.4,16.46,29.14,25.74,17.32L259.48,166l-1.81,20.24-17.41,11.11.06,9.25-11.57,4.44-36.59-12.23-30.71,4.67-3.58,25.44,8.48,11.93,1.69,3.52,11.18,44.22,1.95,8.29-5.28-1.7-5.52,39.44-1.76,9.11-6.85-3.33L135.7,380.18l-4.71,8-7.47-2.62L120.69,390,114,400.44l-8,12.41L99.3,423.18c-1.6,2.48-3.19,4.92-4.69,7.48l-3-6-6.56-13.28L78.47,398c-1.49-3-3.13-5.89-4.62-8.89l-6.59-13.21-1.6-3.21-7.4,1.1L33.4,315.42,23.26,319,18,269.73l-.39-4.83-7.91-5.44,18.55-59.4,29.17-40.2,20.43-36-6.49-3.57L89,87.35,77.54,83.8Z" transform="translate(-9.69 -8.85)"/><polyline class="cls-2" points="248.01 177.41 234.35 160.76 241.03 145.65 249.56 157.97"/><polygon class="cls-2" points="155.61 113.06 176.49 109.09 180.46 116.34 174.76 125.66 155.61 113.06"/><line class="cls-3" x1="96.98" y1="19.5" x2="140.83" y2="24.38"/><polyline class="cls-3" points="79.54 79.77 98.77 19.5 49.28 28.74"/><polyline class="cls-3" points="139.81 25.4 113.65 44.64 97.49 18.48"/><line class="cls-3" x1="144.94" y1="55.67" x2="125.44" y2="62.33"/><polyline class="cls-3" points="87.5 53.86 113.41 44.51 126.3 62.87"/><line class="cls-3" x1="79.33" y1="79.56" x2="113.69" y2="44.79"/><polyline class="cls-3" points="79.59 79.62 101.81 100.48 67.17 114.93"/><line class="cls-3" x1="125.36" y1="62.27" x2="140.3" y2="91.71"/><line class="cls-3" x1="101.39" y1="100.46" x2="140.18" y2="91.17"/><line class="cls-3" x1="140.31" y1="91.61" x2="148.18" y2="67.35"/><line class="cls-3" x1="139.59" y1="91.53" x2="179.03" y2="81.57"/><polyline class="cls-3" points="176.19 109.23 195.4 96.18 139.95 91.47 155.53 113.1"/><polyline class="cls-3" points="56.16 364.35 84.97 325.2 113.92 377.3"/><polyline class="cls-3" points="84 325.33 118.88 316.51 120.81 378.54"/><polyline class="cls-3" points="117.64 317.2 143.55 295.84 151.69 332.37"/><polyline class="cls-3" points="142.59 296.25 166.3 286.05 169.47 278.06"/><polyline class="cls-3" points="56.16 364.21 49.27 282.47 23.63 306.45"/><line class="cls-3" x1="50.23" y1="281.64" x2="86.76" y2="327.4"/><polyline class="cls-3" points="50.19 283.44 45.32 252.51 8.07 256.17 24.14 308.38"/><line class="cls-3" x1="8.29" y1="256.94" x2="49.75" y2="282.77"/><line class="cls-3" x1="84.78" y1="324.56" x2="85.33" y2="237.88"/><polyline class="cls-3" points="85.39 324.45 124.37 279.1 85.55 237.73 49.59 282.92"/><line class="cls-3" x1="119.12" y1="316.49" x2="104.32" y2="302.33"/><polyline class="cls-3" points="143.78 296.92 123.89 278.94 159.53 237.73"/><line class="cls-3" x1="168.76" y1="279.1" x2="145.05" y2="255.07"/><polyline class="cls-3" points="8.51 256.22 48.68 220.67 18.17 192.57"/><line class="cls-3" x1="49.56" y1="219.79" x2="45.39" y2="253.15"/><line class="cls-3" x1="49.36" y1="219.91" x2="72.52" y2="254.66"/><polyline class="cls-3" points="142.13 257.14 126.06 224.4 84.81 237.64"/><line class="cls-3" x1="125.47" y1="224.4" x2="148.87" y2="220.98"/><polyline class="cls-3" points="185.78 191.26 202.53 180.83 230.64 189.18"/><polyline class="cls-3" points="234.31 161.19 205.11 158.12 204.12 181.38"/><polyline class="cls-3" points="205.67 157.84 185.78 140.48 228.24 135.26"/><line class="cls-3" x1="186.06" y1="140.63" x2="180.42" y2="115.51"/><polyline class="cls-3" points="185.78 140.06 125.97 173.5 139.76 91"/><line class="cls-3" x1="169.1" y1="149.04" x2="204.43" y2="174.05"/><line class="cls-3" x1="170.25" y1="148.64" x2="151.63" y2="195.4"/><line class="cls-3" x1="126.21" y1="173.85" x2="151.84" y2="194.98"/><polyline class="cls-3" points="125.58 224.48 110.1 184 125.37 173.96"/><polyline class="cls-3" points="41.75 160.51 47.39 220.49 68.84 207.8 85.44 237.56 119.27 205.45"/><line class="cls-3" x1="69.16" y1="207.96" x2="106.74" y2="216.57"/><polyline class="cls-3" points="44.41 182.43 68.69 208.43 109.4 184.47"/><line class="cls-3" x1="101.16" y1="99.71" x2="135.39" y2="119.13"/><polyline class="cls-3" points="111.82 105.13 92.31 144.96 55.73 136.92"/><line class="cls-3" x1="92.57" y1="143.69" x2="128.09" y2="163.95"/><line class="cls-3" x1="92.4" y1="145.3" x2="97.15" y2="191.42"/><line class="cls-3" x1="42.04" y1="160.81" x2="92.4" y2="145.55"/><line class="cls-3" x1="69.43" y1="152.59" x2="81.63" y2="200.66"/></svg>